Coordinates
version=1
nRows=27
nColumns=12
inDegrees=yes

Units are S.I. units (second, meters, Newtons, ...)
Angles are in degrees

endheader
time	SC_y	SC_z	SC_x	AC_y	AC_z	AC_x	GH_y	GH_z	GH_yy	EL_x	PS_y
       0.0              -30.08          7.671          82.22           44.7         -6.041         -2.829         -162.4         0.1384         -18.35          42.75          46.85
   0.03973              -30.08          7.675          82.22          44.71         -6.039         -2.831         -162.4         0.1434         -18.33          42.76          46.84
   0.07945              -30.08           7.68          82.22          44.71         -6.037         -2.833         -162.4         0.1488         -18.32          42.77          46.84
    0.1192              -30.08          7.685          82.21          44.71         -6.035         -2.836         -162.3         0.1545          -18.3          42.78          46.84
    0.1589              -30.08          7.691          82.21          44.71         -6.033         -2.838         -162.3         0.1606         -18.28          42.79          46.83
    0.1986              -30.08          7.696          82.21          44.72         -6.031         -2.841         -162.3          0.167         -18.26          42.81          46.83
    0.2384              -30.08          7.703           82.2          44.72         -6.029         -2.844         -162.2          0.174         -18.24          42.82          46.83
    0.2781              -30.09          7.709           82.2          44.72         -6.026         -2.847         -162.2         0.1814         -18.22          42.84          46.82
    0.3178              -30.09          7.716          82.19          44.73         -6.024         -2.851         -162.1         0.1893          -18.2          42.85          46.82
    0.3575              -30.09          7.724          82.19          44.73         -6.021         -2.854         -162.1         0.1978         -18.18          42.87          46.82
    0.3973              -30.09          7.732          82.19          44.74         -6.018         -2.858         -162.0         0.2069         -18.15          42.89          46.81
     0.437               -30.1          7.741          82.18          44.74         -6.015         -2.862         -162.0         0.2167         -18.12          42.91          46.81
    0.4767               -30.1           7.75          82.18          44.74         -6.011         -2.867         -161.9         0.2273         -18.09          42.93           46.8
    0.5164               -30.1           7.76          82.17          44.75         -6.007         -2.872         -161.9         0.2387         -18.06          42.96           46.8
    0.5562              -30.11          7.771          82.16          44.76         -6.003         -2.877         -161.8         0.2511         -18.02          42.99          46.79
    0.5959              -30.11          7.783          82.16          44.76         -5.999         -2.883         -161.7         0.2645         -17.98          43.01          46.78
    0.6356              -30.11          7.796          82.15          44.77         -5.994         -2.889         -161.6         0.2791         -17.94          43.05          46.78
    0.6754              -30.12           7.81          82.14          44.78         -5.989         -2.896         -161.6         0.2949         -17.89          43.08          46.77
    0.7151              -30.12          7.826          82.13          44.78         -5.983         -2.903         -161.5         0.3123         -17.84          43.12          46.76
    0.7548              -30.13          7.842          82.12          44.79         -5.977         -2.912         -161.4         0.3313         -17.79          43.16          46.75
    0.7945              -30.13          7.861          82.11           44.8          -5.97         -2.921         -161.2         0.3521         -17.73           43.2          46.74
    0.8343              -30.14          7.881           82.1          44.81         -5.962          -2.93         -161.1         0.3751         -17.66          43.25          46.73
     0.874              -30.14          7.904          82.09          44.83         -5.954         -2.941         -161.0         0.4004         -17.59           43.3          46.72
    0.9137              -30.15          7.929          82.07          44.84         -5.944         -2.953         -160.8         0.4285          -17.5          43.36           46.7
    0.9534              -30.16          7.956          82.06          44.85         -5.934         -2.967         -160.7         0.4597         -17.41          43.43          46.69
    0.9932              -30.17          7.987          82.04          44.87         -5.922         -2.982         -160.5         0.4945         -17.31           43.5          46.67
     1.033              -30.18          8.022          82.02          44.89         -5.909         -2.999         -160.2         0.5335          -17.2          43.59          46.65
